<svg fill="white" viewBox="0 0 1024 1024.5002" xmlns="http://www.w3.org/2000/svg"><path d="M952 531.5q72-75 72-173t-72-173q-66-64-153-71t-162 45l-3 2q-19 14-22.5 35t10 40q13.5 19 35 22.5t40.5-9.5l3-2q42-29 90.5-25t84.5 39q40 43 40 97.5t-40 96.5l-190 190q-42 40-96.5 40t-96.5-40q-35-37-39-85.5t25-90.5l1-3q13-19 9.5-40t-22-34.5q-18.5-13.5-40-10T391 403.5l-2 3q-52 76-44.5 162.5T415 722.5q76 71 173.5 71t173.5-71l190-191zm-880-39q-72 75-72 173t72 173q66 64 153 71t162-45l3-2q19-13 22.5-34.5t-10-40q-13.5-18.5-35-22.5t-40.5 9l-3 2q-42 29-90.5 25t-84.5-39q-40-43-40-97.5t40-96.5l190-190q42-40 96.5-40t96.5 40q35 37 39 85.5t-25 90.5l-1 3q-13 19-9.5 40.5t22 34.5q18.5 13 40 9.5t35.5-21.5l2-3q52-76 44.5-162.5T609 301.5q-76-71-173.5-71t-173.5 71l-190 191z"/></svg>
