<svg fill="white" viewBox="0 0 1024 1024.5002" xmlns="http://www.w3.org/2000/svg"><path d="M280 725.5q-24 39-24 85-24 9-51 9-65-2-108.5-45T51 665.5v-460q-22-1-36-15.5T1 154q0-21.5 14-36t36-15.5h307q22 1 36.5 15.5t14.5 36q0 21.5-14.5 36T358 205.5v393l-78 127zm-126-520v153h102v-153H154zm409-103h256q22 1 36.5 15.5t14.5 36q0 21.5-14.5 36T819 205.5v241l189 306q16 27 16 58-1 48-32.5 79t-78.5 32H418q-47-1-78.5-32t-32.5-79q0-31 17-58l188-306v-241q-22-1-36.5-15.5T461 154q0-21.5 14.5-36t36.5-15.5h51zm51 103v256q0 14-7 27l-78 126h273l-78-126q-7-13-7-27v-256H614z"/></svg>
